<svg width="204.885" height="205.39" xmlns="http://www.w3.org/2000/svg">
    <path style="display:inline;fill:#a93723"
          d="M9.05 202.266c-5.396-4.943-7.72-11.704-7.196-20.933.187-3.3.447-42.148.577-86.33l.236-80.329 4.798-5.31C10.266 6.263 14.288 3.49 17.13 2.7 24.383.686 185.453.863 192.227 2.892c3.006.9 7.154 3.718 9.822 6.67l4.618 5.112v88.576c0 48.717-.535 89.982-1.188 91.7-.653 1.717-2.993 5.056-5.201 7.42l-4.015 4.297h-76.68l.865-19.976c.853-19.708.825-20-2.125-21.785-1.644-.995-9.89-5.577-18.323-10.181-17.212-9.398-27.702-18.52-33.03-28.725-2.929-5.608-3.494-8.467-3.56-18-.063-9.398.475-12.454 3.154-17.897 11.192-22.741 39.216-30.315 61.48-16.616 11.574 7.121 18.623 21.219 18.623 37.243 0 8.33-3.856 17.385-16.213 38.078-3.55 5.945-6.436 11.645-6.414 12.667.038 1.77 17.316 13.192 19.955 13.192 1.349 0 12.353-15.887 17.085-24.667 7.634-14.163 12.253-30.668 12.253-43.78 0-15.084-7.948-34.655-18.59-45.776-6.774-7.08-12.382-10.678-24.722-15.864-8.589-3.609-10.559-3.91-25.334-3.866-13.621.04-17.218.518-24.02 3.196-10.185 4.01-16.935 8.636-25.692 17.608-20.46 20.962-24.813 52.447-11.02 79.709 4.973 9.83 17.612 21.7 33.378 31.348 18.21 11.144 17.334 9.982 17.334 22.965v11.127H13.854zM64.228 36.46c1.341-1.214 2.439-2.926 2.439-3.806 0-.88-4.249-5.375-9.44-9.99l-9.441-8.39-3.3 3.3-3.298 3.299 9.43 8.897c5.188 4.893 9.823 8.897 10.302 8.897.479 0 1.967-.993 3.308-2.207zm94.07-6.088c4.603-4.562 8.369-8.97 8.369-9.793 0-.825-1.228-2.61-2.727-3.967-2.69-2.435-2.856-2.34-12.262 7.066-9.405 9.406-9.5 9.571-7.066 12.262 1.357 1.5 3.109 2.727 3.892 2.727.783 0 5.19-3.733 9.793-8.295zm-46.583-8.705-.382-13H102l-.382 13-.381 13h10.86z"
          transform="translate(-1.781 -1.277)"/>
</svg>